ffmpeg version N-82167-g5e96558 Copyright (c) 2000-2016 the FFmpeg developers
  built with gcc 5.4.0 (Ubuntu 5.4.0-6ubuntu1~16.04.2) 20160609
  configuration: --prefix=/root/ffmpeg_build --pkg-config-flags=--static --extra-cflags=-I/root/ffmpeg_build/include --extra-ldflags=-L/root/ffmpeg_build/lib --bindir=/root/bin --enable-gpl --enable-libass --enable-libfdk-aac --enable-libfreetype --enable-libmp3lame --enable-libopus --enable-libtheora --enable-libvorbis --enable-libx264 --enable-libx265 --enable-nonfree
  libavutil      55. 35.100 / 55. 35.100
  libavcodec     57. 65.100 / 57. 65.100
  libavformat    57. 57.100 / 57. 57.100
  libavdevice    57.  2.100 / 57.  2.100
  libavfilter     6. 66.100 /  6. 66.100
  libswscale      4.  3.100 /  4.  3.100
  libswresample   2.  4.100 /  2.  4.100
  libpostproc    54.  2.100 / 54.  2.100
Input #0, matroska,webm, from '/media/yubikiri/bot/queue/3AnimePahe_Detective_Conan_-_026_720p_Fansub.mkv':
  Metadata:
    title           : 3|Text||0|0
    ENCODER         : Lavf57.57.100
  Duration: 00:24:27.30, start: 0.000000, bitrate: 995 kb/s
    Stream #0:0: Video: mpeg4 (Simple Profile), yuv420p, 640x480 [SAR 1:1 DAR 4:3], 23.98 fps, 23.98 tbr, 1k tbn, 23.98 tbc (default)
    Metadata:
      DURATION        : 00:24:27.301000000
    Stream #0:1: Audio: mp3, 48000 Hz, stereo, s16p, 128 kb/s (default)
    Metadata:
      DURATION        : 00:24:27.264000000
[libx264 @ 0x2c86600] using SAR=1/1
[libx264 @ 0x2c86600] using cpu capabilities: MMX2 SSE2Fast SSSE3 SSE4.2 AVX FMA3 AVX2 LZCNT BMI2
[libx264 @ 0x2c86600] profile High, level 3.1
[libx264 @ 0x2c86600] 264 - core 148 r2643 5c65704 - H.264/MPEG-4 AVC codec - Copyleft 2003-2015 - http://www.videolan.org/x264.html - options: cabac=1 ref=8 deblock=1:1:1 analyse=0x3:0x133 me=umh subme=7 psy=1 psy_rd=0.00:0.00 mixed_ref=1 me_range=8 chroma_me=1 trellis=0 8x8dct=1 cqm=0 deadzone=21,11 fast_pskip=1 chroma_qp_offset=0 threads=8 lookahead_threads=2 sliced_threads=0 nr=0 decimate=1 interlaced=0 bluray_compat=0 constrained_intra=0 bframes=3 b_pyramid=2 b_adapt=2 b_bias=0 direct=1 weightb=1 open_gop=0 weightp=2 keyint=240 keyint_min=24 scenecut=40 intra_refresh=0 rc_lookahead=60 rc=crf mbtree=1 crf=27.0 qcomp=0.60 qpmin=0 qpmax=69 qpstep=4 ip_ratio=1.40 aq=1:1.00
[libfdk_aac @ 0x2c0cec0] Note, the VBR setting is unsupported and only works with some parameter combinations
Output #0, mp4, to '/media/yubikiri/bot/queue/3AnimePahe_Detective_Conan_-_026_720p_Fansub.mkv_encoded.mp4':
  Metadata:
    encoder         : Lavf57.57.100
    Stream #0:0: Video: h264 (libx264) ([33][0][0][0] / 0x0021), yuv420p, 640x480 [SAR 1:1 DAR 4:3], q=-1--1, 23.98 fps, 11988 tbn, 23.98 tbc (default)
    Metadata:
      encoder         : Lavc57.65.100 libx264
    Side data:
      cpb: bitrate max/min/avg: 0/0/0 buffer size: 0 vbv_delay: -1
    Stream #0:1: Audio: aac (libfdk_aac) (HE-AACv2) ([64][0][0][0] / 0x0040), 48000 Hz, stereo, s16, 48 kb/s (default)
    Metadata:
      encoder         : Lavc57.65.100 libfdk_aac
Stream mapping:
  Stream #0:0 -> #0:0 (mpeg4 (native) -> h264 (libx264))
  Stream #0:1 -> #0:1 (mp3 (native) -> aac (libfdk_aac))
Press [q] to stop, [?] for help
frame=  140 fps=0.0 q=32.0 size=     114kB time=00:00:05.99 bitrate= 156.3kbits/s dup=1 drop=0 speed=  12x    frame=  271 fps=271 q=32.0 size=     281kB time=00:00:11.45 bitrate= 200.9kbits/s dup=1 drop=0 speed=11.5x    frame=  389 fps=250 q=32.0 size=     522kB time=00:00:16.40 bitrate= 260.7kbits/s dup=1 drop=0 speed=10.5x    frame=  494 fps=240 q=32.0 size=     704kB time=00:00:20.75 bitrate= 277.9kbits/s dup=1 drop=0 speed=10.1x    frame=  578 fps=226 q=32.0 size=     851kB time=00:00:24.25 bitrate= 287.4kbits/s dup=1 drop=0 speed=9.47x    frame=  649 fps=212 q=32.0 size=    1066kB time=00:00:27.24 bitrate= 320.4kbits/s dup=1 drop=0 speed=8.89x    frame=  706 fps=198 q=32.0 size=    1186kB time=00:00:29.59 bitrate= 328.3kbits/s dup=1 drop=0 speed= 8.3x    frame=  759 fps=186 q=32.0 size=    1331kB time=00:00:31.80 bitrate= 342.7kbits/s dup=1 drop=0 speed=7.81x    frame=  796 fps=174 q=32.0 size=    1481kB time=00:00:33.34 bitrate= 363.9kbits/s dup=1 drop=0 speed=7.28x    frame=  838 fps=165 q=32.0 size=    1702kB time=00:00:35.09 bitrate= 397.4kbits/s dup=1 drop=0 speed=6.91x    frame=  876 fps=157 q=32.0 size=    1883kB time=00:00:36.71 bitrate= 420.0kbits/s dup=1 drop=0 speed=6.56x    frame=  933 fps=152 q=32.0 size=    2080kB time=00:00:39.06 bitrate= 436.3kbits/s dup=1 drop=0 speed=6.38x    frame= 1004 fps=151 q=32.0 size=    2286kB time=00:00:42.00 bitrate= 445.9kbits/s dup=1 drop=0 speed=6.32x    frame= 1074 fps=150 q=32.0 size=    2477kB time=00:00:44.99 bitrate= 451.0kbits/s dup=1 drop=0 speed= 6.3x    frame= 1148 fps=150 q=32.0 size=    2679kB time=00:00:48.06 bitrate= 456.6kbits/s dup=1 drop=0 speed=6.29x    frame= 1204 fps=147 q=32.0 size=    2897kB time=00:00:50.36 bitrate= 471.1kbits/s dup=1 drop=0 speed=6.13x    frame= 1280 fps=147 q=32.0 size=    3174kB time=00:00:53.52 bitrate= 485.8kbits/s dup=1 drop=0 speed=6.13x    frame= 1357 fps=147 q=32.0 size=    3340kB time=00:00:56.76 bitrate= 481.9kbits/s dup=1 drop=0 speed=6.14x    frame= 1419 fps=146 q=32.0 size=    3588kB time=00:00:59.37 bitrate= 495.1kbits/s dup=1 drop=0 speed=6.09x    frame= 1480 fps=144 q=32.0 size=    3825kB time=00:01:01.88 bitrate= 506.3kbits/s dup=1 drop=0 speed=6.03x    frame= 1552 fps=144 q=32.0 size=    4039kB time=00:01:04.87 bitrate= 510.0kbits/s dup=1 drop=0 speed=6.02x    frame= 1632 fps=145 q=32.0 size=    4213kB time=00:01:08.24 bitrate= 505.7kbits/s dup=1 drop=0 speed=6.05x    frame= 1692 fps=144 q=32.0 size=    4376kB time=00:01:10.72 bitrate= 506.9kbits/s dup=1 drop=0 speed=6.01x    frame= 1753 fps=142 q=32.0 size=    4578kB time=00:01:13.28 bitrate= 511.8kbits/s dup=1 drop=0 speed=5.95x    frame= 1801 fps=140 q=32.0 size=    4800kB time=00:01:15.28 bitrate= 522.3kbits/s dup=1 drop=0 speed=5.87x    frame= 1843 fps=138 q=32.0 size=    5007kB time=00:01:17.03 bitrate= 532.5kbits/s dup=1 drop=0 speed=5.77x    frame= 1906 fps=137 q=32.0 size=    5187kB time=00:01:19.63 bitrate= 533.6kbits/s dup=1 drop=0 speed=5.74x    frame= 1973 fps=137 q=32.0 size=    5372kB time=00:01:22.45 bitrate= 533.8kbits/s dup=1 drop=0 speed=5.74x    frame= 2057 fps=138 q=32.0 size=    5530kB time=00:01:25.95 bitrate= 527.1kbits/s dup=1 drop=0 speed=5.78x    frame= 2138 fps=139 q=32.0 size=    5697kB time=00:01:29.32 bitrate= 522.4kbits/s dup=1 drop=0 speed=5.81x    frame= 2348 fps=148 q=32.0 size=    5851kB time=00:01:38.07 bitrate= 488.7kbits/s dup=1 drop=0 speed=6.17x    frame= 2499 fps=153 q=32.0 size=    5963kB time=00:01:44.38 bitrate= 467.9kbits/s dup=1 drop=0 speed=6.37x    frame= 2565 fps=152 q=32.0 size=    6107kB time=00:01:47.11 bitrate= 467.0kbits/s dup=1 drop=0 speed=6.34x    frame= 2654 fps=153 q=32.0 size=    6249kB time=00:01:50.87 bitrate= 461.7kbits/s dup=1 drop=0 speed=6.37x    frame= 2747 fps=153 q=32.0 size=    6428kB time=00:01:54.75 bitrate= 458.9kbits/s dup=1 drop=0 speed=6.41x    frame= 2862 fps=156 q=32.0 size=    6584kB time=00:01:59.53 bitrate= 451.2kbits/s dup=1 drop=0 speed= 6.5x    frame= 2982 fps=158 q=32.0 size=    6734kB time=00:02:04.52 bitrate= 443.0kbits/s dup=1 drop=0 speed=6.59x    frame= 3092 fps=159 q=32.0 size=    6904kB time=00:02:09.13 bitrate= 438.0kbits/s dup=1 drop=0 speed=6.65x    frame= 3187 fps=160 q=32.0 size=    7055kB time=00:02:13.09 bitrate= 434.2kbits/s dup=1 drop=0 speed=6.68x    frame= 3276 fps=160 q=32.0 size=    7161kB time=00:02:16.81 bitrate= 428.8kbits/s dup=1 drop=0 speed=6.69x    frame= 3349 fps=160 q=32.0 size=    7259kB time=00:02:19.84 bitrate= 425.2kbits/s dup=1 drop=0 speed=6.68x    frame= 3418 fps=159 q=32.0 size=    7378kB time=00:02:22.74 bitrate= 423.4kbits/s dup=1 drop=0 speed=6.66x    frame= 3504 fps=160 q=32.0 size=    7481kB time=00:02:26.28 bitrate= 418.9kbits/s dup=1 drop=0 speed=6.67x    frame= 3586 fps=159 q=32.0 size=    7541kB time=00:02:29.73 bitrate= 412.6kbits/s dup=1 drop=0 speed=6.65x    frame= 3636 fps=158 q=32.0 size=    7622kB time=00:02:31.78 bitrate= 411.3kbits/s dup=1 drop=0 speed= 6.6x    frame= 3715 fps=158 q=32.0 size=    7699kB time=00:02:35.11 bitrate= 406.6kbits/s dup=1 drop=0 speed= 6.6x    frame= 3764 fps=157 q=32.0 size=    7837kB time=00:02:37.16 bitrate= 408.5kbits/s dup=1 drop=0 speed=6.54x    frame= 3851 fps=157 q=32.0 size=    7937kB time=00:02:40.79 bitrate= 404.4kbits/s dup=1 drop=0 speed=6.56x    frame= 3953 fps=158 q=32.0 size=    8029kB time=00:02:45.01 bitrate= 398.6kbits/s dup=1 drop=0 speed=6.59x    frame= 4006 fps=157 q=32.0 size=    8126kB time=00:02:47.23 bitrate= 398.1kbits/s dup=1 drop=0 speed=6.55x    frame= 4085 fps=157 q=32.0 size=    8221kB time=00:02:50.51 bitrate= 395.0kbits/s dup=1 drop=0 speed=6.55x    frame= 4187 fps=158 q=32.0 size=    8318kB time=00:02:54.78 bitrate= 389.9kbits/s dup=1 drop=0 speed=6.58x    frame= 4308 fps=159 q=32.0 size=    8390kB time=00:02:59.81 bitrate= 382.2kbits/s dup=1 drop=0 speed=6.65x    frame= 4416 fps=160 q=32.0 size=    8500kB time=00:03:04.38 bitrate= 377.6kbits/s dup=1 drop=0 speed=6.69x    frame= 4535 fps=162 q=32.0 size=    8605kB time=00:03:09.29 bitrate= 372.4kbits/s dup=1 drop=0 speed=6.75x    frame= 4638 fps=162 q=32.0 size=    8696kB time=00:03:13.60 bitrate= 367.9kbits/s dup=1 drop=0 speed=6.78x    frame= 4709 fps=162 q=32.0 size=    8752kB time=00:03:16.54 bitrate= 364.8kbits/s dup=1 drop=0 speed=6.75x    frame= 4756 fps=161 q=32.0 size=    8825kB time=00:03:18.50 bitrate= 364.2kbits/s dup=1 drop=0 speed= 6.7x    frame= 4813 fps=160 q=32.0 size=    8919kB time=00:03:20.89 bitrate= 363.7kbits/s dup=1 drop=0 speed=6.66x    frame= 4870 fps=159 q=32.0 size=    9037kB time=00:03:23.28 bitrate= 364.2kbits/s dup=1 drop=0 speed=6.63x    frame= 4920 fps=158 q=32.0 size=    9103kB time=00:03:25.37 bitrate= 363.1kbits/s dup=1 drop=0 speed=6.59x    frame= 4970 fps=157 q=32.0 size=    9229kB time=00:03:27.46 bitrate= 364.4kbits/s dup=1 drop=0 speed=6.54x    frame= 5021 fps=156 q=32.0 size=    9337kB time=00:03:29.55 bitrate= 365.0kbits/s dup=1 drop=0 speed= 6.5x    frame= 5086 fps=155 q=32.0 size=    9400kB time=00:03:32.28 bitrate= 362.8kbits/s dup=1 drop=0 speed=6.48x    frame= 5152 fps=155 q=32.0 size=    9545kB time=00:03:35.01 bitrate= 363.6kbits/s dup=1 drop=0 speed=6.46x    frame= 5206 fps=154 q=32.0 size=    9640kB time=00:03:37.28 bitrate= 363.4kbits/s dup=1 drop=0 speed=6.43x    frame= 5256 fps=153 q=32.0 size=    9767kB time=00:03:39.37 bitrate= 364.7kbits/s dup=1 drop=0 speed= 6.4x    frame= 5312 fps=153 q=32.0 size=    9833kB time=00:03:41.71 bitrate= 363.3kbits/s dup=1 drop=0 speed=6.37x    frame= 5362 fps=152 q=32.0 size=    9946kB time=00:03:43.80 bitrate= 364.0kbits/s dup=1 drop=0 speed=6.34x    frame= 5419 fps=151 q=32.0 size=   10099kB time=00:03:46.15 bitrate= 365.8kbits/s dup=1 drop=0 speed=6.32x    frame= 5477 fps=151 q=32.0 size=   10186kB time=00:03:48.58 bitrate= 365.1kbits/s dup=1 drop=0 speed=6.29x    frame= 5539 fps=150 q=32.0 size=   10263kB time=00:03:51.19 bitrate= 363.7kbits/s dup=1 drop=0 speed=6.27x    frame= 5589 fps=149 q=32.0 size=   10368kB time=00:03:53.23 bitrate= 364.2kbits/s dup=1 drop=0 speed=6.24x    frame= 5661 fps=149 q=32.0 size=   10471kB time=00:03:56.26 bitrate= 363.0kbits/s dup=1 drop=0 speed=6.23x    frame= 5720 fps=149 q=32.0 size=   10559kB time=00:03:58.74 bitrate= 362.3kbits/s dup=1 drop=0 speed=6.21x    frame= 5749 fps=148 q=32.0 size=   10658kB time=00:03:59.93 bitrate= 363.9kbits/s dup=1 drop=0 speed=6.16x    frame= 5804 fps=147 q=32.0 size=   10773kB time=00:04:02.24 bitrate= 364.3kbits/s dup=1 drop=0 speed=6.14x    frame= 5860 fps=147 q=32.0 size=   10854kB time=00:04:04.54 bitrate= 363.6kbits/s dup=1 drop=0 speed=6.12x    frame= 5900 fps=146 q=32.0 size=   10949kB time=00:04:06.25 bitrate= 364.2kbits/s dup=1 drop=0 speed=6.09x    frame= 5952 fps=145 q=32.0 size=   11033kB time=00:04:08.38 bitrate= 363.9kbits/s dup=1 drop=0 speed=6.06x    frame= 6020 fps=145 q=32.0 size=   11131kB time=00:04:11.24 bitrate= 362.9kbits/s dup=1 drop=0 speed=6.06x    frame= 6109 fps=145 q=32.0 size=   11228kB time=00:04:14.95 bitrate= 360.8kbits/s dup=1 drop=0 speed=6.06x    frame= 6199 fps=146 q=32.0 size=   11302kB time=00:04:18.71 bitrate= 357.9kbits/s dup=1 drop=0 speed=6.08x    frame= 6261 fps=145 q=32.0 size=   11375kB time=00:04:21.27 bitrate= 356.7kbits/s dup=1 drop=0 speed=6.06x    frame= 6346 fps=146 q=32.0 size=   11479kB time=00:04:24.85 bitrate= 355.0kbits/s dup=1 drop=0 speed=6.07x    frame= 6432 fps=146 q=32.0 size=   11568kB time=00:04:28.39 bitrate= 353.1kbits/s dup=1 drop=0 speed=6.08x    frame= 6505 fps=146 q=32.0 size=   11675kB time=00:04:31.46 bitrate= 352.3kbits/s dup=1 drop=0 speed=6.08x    frame= 6549 fps=145 q=32.0 size=   11780kB time=00:04:33.30 bitrate= 353.1kbits/s dup=1 drop=0 speed=6.05x    frame= 6622 fps=145 q=32.0 size=   11839kB time=00:04:36.37 bitrate= 350.9kbits/s dup=1 drop=0 speed=6.05x    frame= 6667 fps=144 q=32.0 size=   11958kB time=00:04:38.25 bitrate= 352.0kbits/s dup=1 drop=0 speed=6.02x    frame= 6744 fps=144 q=32.0 size=   12023kB time=00:04:41.45 bitrate= 350.0kbits/s dup=1 drop=0 speed=6.03x    frame= 6819 fps=144 q=32.0 size=   12123kB time=00:04:44.60 bitrate= 349.0kbits/s dup=1 drop=0 speed=6.03x    frame= 6887 fps=144 q=32.0 size=   12220kB time=00:04:47.38 bitrate= 348.3kbits/s dup=1 drop=0 speed=6.02x    frame= 6957 fps=144 q=32.0 size=   12315kB time=00:04:50.32 bitrate= 347.5kbits/s dup=1 drop=0 speed=6.02x    frame= 7026 fps=144 q=32.0 size=   12391kB time=00:04:53.22 bitrate= 346.2kbits/s dup=1 drop=0 speed=6.02x    frame= 7078 fps=144 q=32.0 size=   12451kB time=00:04:55.36 bitrate= 345.3kbits/s dup=1 drop=0 speed=5.99x    frame= 7116 fps=143 q=32.0 size=   12532kB time=00:04:56.93 bitrate= 345.7kbits/s dup=1 drop=0 speed=5.96x    frame= 7178 fps=143 q=32.0 size=   12586kB time=00:04:59.54 bitrate= 344.2kbits/s dup=1 drop=0 speed=5.95x    frame= 7231 fps=142 q=32.0 size=   12707kB time=00:05:01.76 bitrate= 345.0kbits/s dup=1 drop=0 speed=5.94x    frame= 7280 fps=142 q=32.0 size=   12862kB time=00:05:03.80 bitrate= 346.8kbits/s dup=1 drop=0 speed=5.91x    frame= 7343 fps=142 q=32.0 size=   12948kB time=00:05:06.41 bitrate= 346.2kbits/s dup=1 drop=0 speed=5.91x    frame= 7445 fps=142 q=32.0 size=   13109kB time=00:05:10.67 bitrate= 345.7kbits/s dup=1 drop=0 speed=5.93x    frame= 7582 fps=143 q=32.0 size=   13304kB time=00:05:16.39 bitrate= 344.5kbits/s dup=1 drop=0 speed=5.98x    frame= 7725 fps=145 q=32.0 size=   13519kB time=00:05:22.32 bitrate= 343.6kbits/s dup=1 drop=0 speed=6.04x    frame= 7814 fps=145 q=32.0 size=   13628kB time=00:05:26.08 bitrate= 342.4kbits/s dup=1 drop=0 speed=6.05x    frame= 7929 fps=146 q=32.0 size=   13810kB time=00:05:30.85 bitrate= 341.9kbits/s dup=1 drop=0 speed=6.08x    frame= 8061 fps=147 q=32.0 size=   13971kB time=00:05:36.36 bitrate= 340.3kbits/s dup=1 drop=0 speed=6.13x    frame= 8187 fps=148 q=32.0 size=   14131kB time=00:05:41.61 bitrate= 338.9kbits/s dup=1 drop=0 speed=6.17x    frame= 8289 fps=148 q=32.0 size=   14282kB time=00:05:45.87 bitrate= 338.3kbits/s dup=1 drop=0 speed=6.19x    frame= 8398 fps=149 q=32.0 size=   14397kB time=00:05:50.40 bitrate= 336.6kbits/s dup=1 drop=0 speed=6.21x    frame= 8494 fps=149 q=32.0 size=   14530kB time=00:05:54.41 bitrate= 335.8kbits/s dup=1 drop=0 speed=6.23x    frame= 8618 fps=150 q=32.0 size=   14747kB time=00:05:59.57 bitrate= 336.0kbits/s dup=1 drop=0 speed=6.26x    frame= 8720 fps=151 q=32.0 size=   14875kB time=00:06:03.88 bitrate= 334.9kbits/s dup=1 drop=0 speed=6.28x    frame= 8792 fps=151 q=32.0 size=   15082kB time=00:06:06.87 bitrate= 336.8kbits/s dup=1 drop=0 speed=6.28x    frame= 8883 fps=151 q=32.0 size=   15264kB time=00:06:10.66 bitrate= 337.3kbits/s dup=1 drop=0 speed=6.29x    frame= 8970 fps=151 q=32.0 size=   15383kB time=00:06:14.29 bitrate= 336.7kbits/s dup=1 drop=0 speed= 6.3x    frame= 9088 fps=152 q=32.0 size=   15520kB time=00:06:19.20 bitrate= 335.3kbits/s dup=1 drop=0 speed=6.33x    frame= 9204 fps=152 q=32.0 size=   15688kB time=00:06:24.06 bitrate= 334.6kbits/s dup=1 drop=0 speed=6.35x    frame= 9343 fps=153 q=32.0 size=   15888kB time=00:06:29.86 bitrate= 333.8kbits/s dup=1 drop=0 speed= 6.4x    frame= 9479 fps=154 q=32.0 size=   16066kB time=00:06:35.49 bitrate= 332.8kbits/s dup=1 drop=0 speed=6.44x    frame= 9627 fps=155 q=32.0 size=   16169kB time=00:06:41.72 bitrate= 329.7kbits/s dup=1 drop=0 speed=6.48x    frame= 9749 fps=156 q=32.0 size=   16357kB time=00:06:46.76 bitrate= 329.4kbits/s dup=1 drop=0 speed=6.51x    frame= 9853 fps=156 q=32.0 size=   16479kB time=00:06:51.11 bitrate= 328.4kbits/s dup=1 drop=0 speed=6.53x    frame= 9963 fps=157 q=32.0 size=   16627kB time=00:06:55.72 bitrate= 327.7kbits/s dup=1 drop=0 speed=6.55x    frame=10039 fps=157 q=32.0 size=   16889kB time=00:06:58.88 bitrate= 330.3kbits/s dup=1 drop=0 speed=6.55x    frame=10117 fps=157 q=32.0 size=   17093kB time=00:07:02.12 bitrate= 331.7kbits/s dup=1 drop=0 speed=6.55x    frame=10199 fps=157 q=32.0 size=   17221kB time=00:07:05.53 bitrate= 331.5kbits/s dup=1 drop=0 speed=6.55x    frame=10323 fps=158 q=32.0 size=   17373kB time=00:07:10.69 bitrate= 330.4kbits/s dup=1 drop=0 speed=6.58x    frame=10423 fps=158 q=32.0 size=   17502kB time=00:07:14.88 bitrate= 329.7kbits/s dup=1 drop=0 speed=6.59x    frame=10542 fps=159 q=32.0 size=   17665kB time=00:07:19.83 bitrate= 329.0kbits/s dup=1 drop=0 speed=6.62x    frame=10640 fps=159 q=32.0 size=   17779kB time=00:07:23.92 bitrate= 328.1kbits/s dup=1 drop=0 speed=6.63x    frame=10707 fps=159 q=32.0 size=   17924kB time=00:07:26.74 bitrate= 328.7kbits/s dup=1 drop=0 speed=6.62x    frame=10781 fps=159 q=32.0 size=   18090kB time=00:07:29.81 bitrate= 329.5kbits/s dup=1 drop=0 speed=6.62x    frame=10892 fps=159 q=32.0 size=   18243kB time=00:07:34.42 bitrate= 328.9kbits/s dup=1 drop=0 speed=6.63x    frame=11039 fps=160 q=32.0 size=   18360kB time=00:07:40.56 bitrate= 326.6kbits/s dup=1 drop=0 speed=6.67x    frame=11183 fps=161 q=32.0 size=   18531kB time=00:07:46.62 bitrate= 325.3kbits/s dup=1 drop=0 speed=6.71x    frame=11288 fps=161 q=32.0 size=   18636kB time=00:07:50.93 bitrate= 324.2kbits/s dup=1 drop=0 speed=6.73x    frame=11394 fps=162 q=32.0 size=   18813kB time=00:07:55.37 bitrate= 324.2kbits/s dup=1 drop=0 speed=6.74x    frame=11519 fps=162 q=32.0 size=   18962kB time=00:08:00.61 bitrate= 323.2kbits/s dup=1 drop=0 speed=6.77x    frame=11597 fps=162 q=32.0 size=   19063kB time=00:08:03.81 bitrate= 322.8kbits/s dup=1 drop=0 speed=6.77x    frame=11708 fps=163 q=32.0 size=   19234kB time=00:08:08.47 bitrate= 322.6kbits/s dup=1 drop=0 speed=6.78x    frame=11821 fps=163 q=32.0 size=   19335kB time=00:08:13.20 bitrate= 321.2kbits/s dup=1 drop=0 speed= 6.8x    frame=11913 fps=163 q=32.0 size=   19429kB time=00:08:17.04 bitrate= 320.2kbits/s dup=1 drop=0 speed=6.81x    frame=12012 fps=163 q=32.0 size=   19549kB time=00:08:21.18 bitrate= 319.5kbits/s dup=1 drop=0 speed=6.82x    frame=12107 fps=164 q=32.0 size=   19642kB time=00:08:25.11 bitrate= 318.6kbits/s dup=1 drop=0 speed=6.82x    frame=12154 fps=163 q=32.0 size=   19732kB time=00:08:27.07 bitrate= 318.8kbits/s dup=1 drop=0 speed= 6.8x    frame=12215 fps=163 q=32.0 size=   19847kB time=00:08:29.63 bitrate= 319.0kbits/s dup=1 drop=0 speed=6.79x    frame=12301 fps=163 q=32.0 size=   19916kB time=00:08:33.25 bitrate= 317.9kbits/s dup=1 drop=0 speed= 6.8x    frame=12349 fps=162 q=32.0 size=   19986kB time=00:08:35.22 bitrate= 317.8kbits/s dup=1 drop=0 speed=6.77x    frame=12424 fps=162 q=32.0 size=   20082kB time=00:08:38.33 bitrate= 317.4kbits/s dup=1 drop=0 speed=6.77x    frame=12517 fps=162 q=32.0 size=   20222kB time=00:08:42.21 bitrate= 317.2kbits/s dup=1 drop=0 speed=6.78x    frame=12589 fps=162 q=32.0 size=   20317kB time=00:08:45.20 bitrate= 316.9kbits/s dup=1 drop=0 speed=6.77x    frame=12680 fps=162 q=32.0 size=   20426kB time=00:08:49.04 bitrate= 316.3kbits/s dup=1 drop=0 speed=6.78x    frame=12779 fps=163 q=32.0 size=   20558kB time=00:08:53.14 bitrate= 315.9kbits/s dup=1 drop=0 speed=6.78x    frame=12873 fps=163 q=32.0 size=   20627kB time=00:08:57.06 bitrate= 314.6kbits/s dup=1 drop=0 speed=6.79x    frame=12968 fps=163 q=32.0 size=   20744kB time=00:09:01.03 bitrate= 314.1kbits/s dup=1 drop=0 speed= 6.8x    frame=13076 fps=163 q=32.0 size=   20839kB time=00:09:05.55 bitrate= 312.9kbits/s dup=1 drop=0 speed=6.81x    frame=13158 fps=163 q=32.0 size=   20953kB time=00:09:08.97 bitrate= 312.7kbits/s dup=1 drop=0 speed=6.81x    frame=13235 fps=163 q=32.0 size=   21020kB time=00:09:12.17 bitrate= 311.8kbits/s dup=1 drop=0 speed=6.81x    frame=13319 fps=163 q=32.0 size=   21073kB time=00:09:15.71 bitrate= 310.6kbits/s dup=1 drop=0 speed=6.81x    frame=13390 fps=163 q=32.0 size=   21154kB time=00:09:18.61 bitrate= 310.2kbits/s dup=1 drop=0 speed= 6.8x    frame=13486 fps=163 q=32.0 size=   21232kB time=00:09:22.62 bitrate= 309.1kbits/s dup=1 drop=0 speed=6.81x    frame=13541 fps=163 q=32.0 size=   21295kB time=00:09:24.92 bitrate= 308.8kbits/s dup=1 drop=0 speed= 6.8x    frame=13596 fps=163 q=32.0 size=   21350kB time=00:09:27.23 bitrate= 308.3kbits/s dup=1 drop=0 speed=6.78x    frame=13652 fps=162 q=32.0 size=   21408kB time=00:09:29.57 bitrate= 307.9kbits/s dup=1 drop=0 speed=6.77x    frame=13713 fps=162 q=29.0 size=   21465kB time=00:09:32.09 bitrate= 307.4kbits/s dup=1 drop=0 speed=6.76x    frame=13766 fps=162 q=32.0 size=   21555kB time=00:09:34.31 bitrate= 307.5kbits/s dup=1 drop=0 speed=6.74x    frame=13823 fps=161 q=32.0 size=   21618kB time=00:09:36.70 bitrate= 307.1kbits/s dup=1 drop=0 speed=6.73x    frame=13878 fps=161 q=32.0 size=   21710kB time=00:09:39.00 bitrate= 307.2kbits/s dup=1 drop=0 speed=6.72x    frame=13959 fps=161 q=32.0 size=   21784kB time=00:09:42.37 bitrate= 306.4kbits/s dup=1 drop=0 speed=6.72x    frame=14043 fps=161 q=32.0 size=   21874kB time=00:09:45.87 bitrate= 305.9kbits/s dup=1 drop=0 speed=6.72x    frame=14123 fps=161 q=32.0 size=   21930kB time=00:09:49.20 bitrate= 304.9kbits/s dup=1 drop=0 speed=6.72x    frame=14169 fps=161 q=32.0 size=   22051kB time=00:09:51.12 bitrate= 305.6kbits/s dup=1 drop=0 speed= 6.7x    frame=14214 fps=160 q=32.0 size=   22137kB time=00:09:53.00 bitrate= 305.8kbits/s dup=1 drop=0 speed=6.68x    frame=14252 fps=160 q=32.0 size=   22208kB time=00:09:54.58 bitrate= 306.0kbits/s dup=1 drop=0 speed=6.66x    frame=14295 fps=159 q=32.0 size=   22293kB time=00:09:56.37 bitrate= 306.2kbits/s dup=1 drop=0 speed=6.64x    frame=14337 fps=159 q=32.0 size=   22362kB time=00:09:58.12 bitrate= 306.3kbits/s dup=1 drop=0 speed=6.63x    frame=14410 fps=159 q=32.0 size=   22465kB time=00:10:01.19 bitrate= 306.1kbits/s dup=1 drop=0 speed=6.62x    frame=14466 fps=158 q=32.0 size=   22524kB time=00:10:03.49 bitrate= 305.7kbits/s dup=1 drop=0 speed=6.61x    frame=14548 fps=159 q=32.0 size=   22601kB time=00:10:06.95 bitrate= 305.0kbits/s dup=1 drop=0 speed=6.61x    frame=14655 fps=159 q=32.0 size=   22721kB time=00:10:11.39 bitrate= 304.4kbits/s dup=1 drop=0 speed=6.63x    frame=14745 fps=159 q=32.0 size=   22775kB time=00:10:15.14 bitrate= 303.3kbits/s dup=1 drop=0 speed=6.63x    frame=14808 fps=159 q=32.0 size=   22880kB time=00:10:17.79 bitrate= 303.4kbits/s dup=1 drop=0 speed=6.62x    frame=14889 fps=159 q=32.0 size=   22965kB time=00:10:21.16 bitrate= 302.9kbits/s dup=1 drop=0 speed=6.62x    frame=14965 fps=159 q=32.0 size=   23062kB time=00:10:24.32 bitrate= 302.6kbits/s dup=1 drop=0 speed=6.62x    frame=15048 fps=159 q=32.0 size=   23125kB time=00:10:27.77 bitrate= 301.8kbits/s dup=1 drop=0 speed=6.62x    frame=15123 fps=159 q=32.0 size=   23222kB time=00:10:30.89 bitrate= 301.5kbits/s dup=1 drop=0 speed=6.62x    frame=15182 fps=158 q=32.0 size=   23285kB time=00:10:33.36 bitrate= 301.2kbits/s dup=1 drop=0 speed=6.61x    frame=15236 fps=158 q=32.0 size=   23350kB time=00:10:35.62 bitrate= 300.9kbits/s dup=1 drop=0 speed= 6.6x    frame=15292 fps=158 q=32.0 size=   23416kB time=00:10:37.97 bitrate= 300.7kbits/s dup=1 drop=0 speed=6.59x    frame=15334 fps=157 q=32.0 size=   23477kB time=00:10:39.72 bitrate= 300.6kbits/s dup=1 drop=0 speed=6.57x    frame=15374 fps=157 q=32.0 size=   23556kB time=00:10:41.38 bitrate= 300.9kbits/s dup=1 drop=0 speed=6.55x    frame=15418 fps=157 q=32.0 size=   23639kB time=00:10:43.22 bitrate= 301.1kbits/s dup=1 drop=0 speed=6.53x    frame=15479 fps=156 q=32.0 size=   23719kB time=00:10:45.78 bitrate= 300.9kbits/s dup=1 drop=0 speed=6.52x    frame=15563 fps=156 q=32.0 size=   23812kB time=00:10:49.28 bitrate= 300.4kbits/s dup=1 drop=0 speed=6.53x    frame=15643 fps=156 q=32.0 size=   23899kB time=00:10:52.65 bitrate= 300.0kbits/s dup=1 drop=0 speed=6.53x    frame=15799 fps=157 q=32.0 size=   24022kB time=00:10:59.09 bitrate= 298.6kbits/s dup=1 drop=0 speed=6.56x    frame=15948 fps=158 q=32.0 size=   24159kB time=00:11:05.32 bitrate= 297.5kbits/s dup=1 drop=0 speed=6.59x    frame=16076 fps=158 q=32.0 size=   24314kB time=00:11:10.65 bitrate= 297.0kbits/s dup=1 drop=0 speed=6.61x    frame=16177 fps=159 q=32.0 size=   24479kB time=00:11:14.92 bitrate= 297.1kbits/s dup=1 drop=0 speed=6.62x    frame=16284 fps=159 q=32.0 size=   24624kB time=00:11:19.36 bitrate= 296.9kbits/s dup=1 drop=0 speed=6.63x    frame=16397 fps=159 q=32.0 size=   24812kB time=00:11:24.05 bitrate= 297.1kbits/s dup=1 drop=0 speed=6.64x    frame=16539 fps=160 q=32.0 size=   25004kB time=00:11:29.98 bitrate= 296.9kbits/s dup=1 drop=0 speed=6.67x    frame=16703 fps=161 q=32.0 size=   25165kB time=00:11:36.81 bitrate= 295.8kbits/s dup=1 drop=0 speed= 6.7x    frame=16855 fps=161 q=32.0 size=   25336kB time=00:11:43.12 bitrate= 295.2kbits/s dup=1 drop=0 speed=6.73x    frame=16971 fps=162 q=32.0 size=   25483kB time=00:11:47.99 bitrate= 294.9kbits/s dup=1 drop=0 speed=6.74x    frame=17093 fps=162 q=32.0 size=   25660kB time=00:11:53.06 bitrate= 294.8kbits/s dup=1 drop=0 speed=6.76x    frame=17186 fps=162 q=32.0 size=   25792kB time=00:11:56.95 bitrate= 294.7kbits/s dup=1 drop=0 speed=6.76x    frame=17275 fps=162 q=32.0 size=   25927kB time=00:12:00.66 bitrate= 294.7kbits/s dup=1 drop=0 speed=6.76x    frame=17371 fps=162 q=32.0 size=   26053kB time=00:12:04.67 bitrate= 294.5kbits/s dup=1 drop=0 speed=6.77x    frame=17497 fps=163 q=32.0 size=   26152kB time=00:12:09.92 bitrate= 293.5kbits/s dup=1 drop=0 speed=6.79x    frame=17610 fps=163 q=32.0 size=   26293kB time=00:12:14.65 bitrate= 293.2kbits/s dup=1 drop=0 speed= 6.8x    frame=17705 fps=163 q=32.0 size=   26413kB time=00:12:18.58 bitrate= 293.0kbits/s dup=1 drop=0 speed= 6.8x    frame=17820 fps=163 q=32.0 size=   26539kB time=00:12:23.40 bitrate= 292.4kbits/s dup=1 drop=0 speed=6.82x    frame=17973 fps=164 q=32.0 size=   26681kB time=00:12:29.80 bitrate= 291.5kbits/s dup=1 drop=0 speed=6.84x    frame=18122 fps=165 q=32.0 size=   26849kB time=00:12:35.99 bitrate= 290.9kbits/s dup=1 drop=0 speed=6.87x    frame=18263 fps=165 q=32.0 size=   26996kB time=00:12:41.87 bitrate= 290.3kbits/s dup=1 drop=0 speed=6.89x    frame=18376 fps=165 q=32.0 size=   27130kB time=00:12:46.57 bitrate= 289.9kbits/s dup=1 drop=0 speed= 6.9x    frame=18488 fps=166 q=32.0 size=   27286kB time=00:12:51.26 bitrate= 289.8kbits/s dup=1 drop=0 speed=6.91x    frame=18583 fps=166 q=32.0 size=   27394kB time=00:12:55.19 bitrate= 289.5kbits/s dup=1 drop=0 speed=6.92x    frame=18657 fps=166 q=32.0 size=   27512kB time=00:12:58.30 bitrate= 289.6kbits/s dup=1 drop=0 speed=6.91x    frame=18726 fps=166 q=32.0 size=   27654kB time=00:13:01.20 bitrate= 290.0kbits/s dup=1 drop=0 speed=6.91x    frame=18832 fps=166 q=32.0 size=   27799kB time=00:13:05.60 bitrate= 289.9kbits/s dup=1 drop=0 speed=6.91x    frame=18973 fps=166 q=32.0 size=   27989kB time=00:13:11.48 bitrate= 289.7kbits/s dup=1 drop=0 speed=6.93x    frame=19086 fps=166 q=32.0 size=   28130kB time=00:13:16.18 bitrate= 289.4kbits/s dup=1 drop=0 speed=6.94x    frame=19197 fps=167 q=32.0 size=   28261kB time=00:13:20.87 bitrate= 289.1kbits/s dup=1 drop=0 speed=6.96x    frame=19298 fps=167 q=32.0 size=   28408kB time=00:13:25.05 bitrate= 289.1kbits/s dup=1 drop=0 speed=6.96x    frame=19420 fps=167 q=32.0 size=   28539kB time=00:13:30.13 bitrate= 288.6kbits/s dup=1 drop=0 speed=6.98x    frame=19537 fps=167 q=32.0 size=   28671kB time=00:13:34.99 bitrate= 288.2kbits/s dup=1 drop=0 speed=6.99x    frame=19645 fps=168 q=32.0 size=   28793kB time=00:13:39.52 bitrate= 287.8kbits/s dup=1 drop=0 speed=6.99x    frame=19730 fps=168 q=32.0 size=   28953kB time=00:13:43.06 bitrate= 288.2kbits/s dup=1 drop=0 speed=6.99x    frame=19857 fps=168 q=32.0 size=   29155kB time=00:13:48.35 bitrate= 288.3kbits/s dup=1 drop=0 speed=7.01x    frame=19975 fps=168 q=32.0 size=   29294kB time=00:13:53.25 bitrate= 288.0kbits/s dup=1 drop=0 speed=7.02x    frame=20083 fps=168 q=29.0 size=   29410kB time=00:13:57.78 bitrate= 287.6kbits/s dup=1 drop=0 speed=7.03x    frame=20152 fps=168 q=32.0 size=   29536kB time=00:14:00.68 bitrate= 287.8kbits/s dup=1 drop=0 speed=7.02x    frame=20201 fps=168 q=32.0 size=   29675kB time=00:14:02.73 bitrate= 288.5kbits/s dup=1 drop=0 speed=7.01x    frame=20240 fps=168 q=32.0 size=   29756kB time=00:14:04.35 bitrate= 288.7kbits/s dup=1 drop=0 speed=6.99x    frame=20276 fps=167 q=32.0 size=   29826kB time=00:14:05.84 bitrate= 288.9kbits/s dup=1 drop=0 speed=6.97x    frame=20315 fps=167 q=32.0 size=   29953kB time=00:14:07.46 bitrate= 289.5kbits/s dup=1 drop=0 speed=6.96x    frame=20365 fps=167 q=32.0 size=   30073kB time=00:14:09.55 bitrate= 290.0kbits/s dup=1 drop=0 speed=6.95x    frame=20402 fps=166 q=32.0 size=   30193kB time=00:14:11.09 bitrate= 290.6kbits/s dup=1 drop=0 speed=6.93x    frame=20459 fps=166 q=32.0 size=   30312kB time=00:14:13.48 bitrate= 290.9kbits/s dup=1 drop=0 speed=6.92x    frame=20510 fps=166 q=32.0 size=   30417kB time=00:14:15.61 bitrate= 291.2kbits/s dup=1 drop=0 speed=6.91x    frame=20605 fps=166 q=32.0 size=   30525kB time=00:14:19.54 bitrate= 290.9kbits/s dup=1 drop=0 speed=6.91x    frame=20692 fps=166 q=32.0 size=   30627kB time=00:14:23.16 bitrate= 290.7kbits/s dup=1 drop=0 speed=6.91x    frame=20792 fps=166 q=32.0 size=   30685kB time=00:14:27.39 bitrate= 289.8kbits/s dup=1 drop=0 speed=6.92x    frame=20879 fps=166 q=32.0 size=   30798kB time=00:14:30.97 bitrate= 289.7kbits/s dup=1 drop=0 speed=6.92x    frame=20964 fps=166 q=32.0 size=   30906kB time=00:14:34.51 bitrate= 289.5kbits/s dup=1 drop=0 speed=6.92x    frame=21072 fps=166 q=32.0 size=   30989kB time=00:14:39.04 bitrate= 288.8kbits/s dup=1 drop=0 speed=6.93x    frame=21151 fps=166 q=32.0 size=   31067kB time=00:14:42.32 bitrate= 288.4kbits/s dup=1 drop=0 speed=6.93x    frame=21199 fps=166 q=32.0 size=   31131kB time=00:14:44.33 bitrate= 288.4kbits/s dup=1 drop=0 speed=6.92x    frame=21244 fps=165 q=32.0 size=   31193kB time=00:14:46.20 bitrate= 288.3kbits/s dup=1 drop=0 speed= 6.9x    frame=21290 fps=165 q=32.0 size=   31255kB time=00:14:48.12 bitrate= 288.3kbits/s dup=1 drop=0 speed=6.89x    frame=21345 fps=165 q=32.0 size=   31339kB time=00:14:50.43 bitrate= 288.3kbits/s dup=1 drop=0 speed=6.88x    frame=21399 fps=165 q=32.0 size=   31394kB time=00:14:52.69 bitrate= 288.1kbits/s dup=1 drop=0 speed=6.87x    frame=21458 fps=165 q=32.0 size=   31469kB time=00:14:55.12 bitrate= 288.0kbits/s dup=1 drop=0 speed=6.86x    frame=21538 fps=164 q=32.0 size=   31526kB time=00:14:58.45 bitrate= 287.4kbits/s dup=1 drop=0 speed=6.86x    frame=21599 fps=164 q=32.0 size=   31611kB time=00:15:01.01 bitrate= 287.4kbits/s dup=1 drop=0 speed=6.86x    frame=21652 fps=164 q=32.0 size=   31682kB time=00:15:03.23 bitrate= 287.3kbits/s dup=1 drop=0 speed=6.85x    frame=21696 fps=164 q=32.0 size=   31763kB time=00:15:05.06 bitrate= 287.5kbits/s dup=1 drop=0 speed=6.83x    frame=21761 fps=164 q=32.0 size=   31870kB time=00:15:07.75 bitrate= 287.6kbits/s dup=1 drop=0 speed=6.83x    frame=21833 fps=164 q=32.0 size=   31939kB time=00:15:10.78 bitrate= 287.3kbits/s dup=1 drop=0 speed=6.82x    frame=21883 fps=163 q=32.0 size=   32024kB time=00:15:12.87 bitrate= 287.4kbits/s dup=1 drop=0 speed=6.81x    frame=21935 fps=163 q=32.0 size=   32099kB time=00:15:15.00 bitrate= 287.4kbits/s dup=1 drop=0 speed= 6.8x    frame=21975 fps=163 q=32.0 size=   32174kB time=00:15:16.71 bitrate= 287.5kbits/s dup=1 drop=0 speed=6.79x    frame=22030 fps=163 q=32.0 size=   32284kB time=00:15:18.97 bitrate= 287.8kbits/s dup=1 drop=0 speed=6.78x    frame=22133 fps=163 q=32.0 size=   32372kB time=00:15:23.28 bitrate= 287.2kbits/s dup=1 drop=0 speed=6.79x    frame=22239 fps=163 q=32.0 size=   32465kB time=00:15:27.72 bitrate= 286.7kbits/s dup=1 drop=0 speed= 6.8x    frame=22339 fps=163 q=32.0 size=   32547kB time=00:15:31.86 bitrate= 286.1kbits/s dup=1 drop=0 speed= 6.8x    frame=22399 fps=163 q=32.0 size=   32633kB time=00:15:34.37 bitrate= 286.1kbits/s dup=1 drop=0 speed= 6.8x    frame=22498 fps=163 q=32.0 size=   32705kB time=00:15:38.51 bitrate= 285.5kbits/s dup=1 drop=0 speed= 6.8x    frame=22580 fps=163 q=32.0 size=   32787kB time=00:15:41.93 bitrate= 285.1kbits/s dup=1 drop=0 speed= 6.8x    frame=22672 fps=163 q=32.0 size=   32860kB time=00:15:45.77 bitrate= 284.6kbits/s dup=1 drop=0 speed= 6.8x    frame=22743 fps=163 q=32.0 size=   32929kB time=00:15:48.75 bitrate= 284.3kbits/s dup=1 drop=0 speed= 6.8x    frame=22831 fps=163 q=32.0 size=   33021kB time=00:15:52.38 bitrate= 284.0kbits/s dup=1 drop=0 speed= 6.8x    frame=22906 fps=163 q=32.0 size=   33129kB time=00:15:55.54 bitrate= 284.0kbits/s dup=1 drop=0 speed= 6.8x    frame=22978 fps=163 q=32.0 size=   33175kB time=00:15:58.52 bitrate= 283.5kbits/s dup=1 drop=0 speed= 6.8x    frame=23073 fps=163 q=32.0 size=   33231kB time=00:16:02.49 bitrate= 282.8kbits/s dup=1 drop=0 speed= 6.8x    frame=23155 fps=163 q=32.0 size=   33350kB time=00:16:05.91 bitrate= 282.8kbits/s dup=1 drop=0 speed= 6.8x    frame=23231 fps=163 q=32.0 size=   33413kB time=00:16:09.11 bitrate= 282.4kbits/s dup=1 drop=0 speed= 6.8x    frame=23297 fps=163 q=32.0 size=   33500kB time=00:16:11.84 bitrate= 282.4kbits/s dup=1 drop=0 speed=6.79x    frame=23377 fps=163 q=32.0 size=   33572kB time=00:16:15.16 bitrate= 282.0kbits/s dup=1 drop=0 speed=6.79x    frame=23451 fps=163 q=32.0 size=   33636kB time=00:16:18.28 bitrate= 281.7kbits/s dup=1 drop=0 speed=6.79x    frame=23498 fps=163 q=32.0 size=   33705kB time=00:16:20.24 bitrate= 281.7kbits/s dup=1 drop=0 speed=6.78x    frame=23559 fps=162 q=32.0 size=   33763kB time=00:16:22.76 bitrate= 281.4kbits/s dup=1 drop=0 speed=6.77x    frame=23616 fps=162 q=32.0 size=   33830kB time=00:16:25.15 bitrate= 281.3kbits/s dup=1 drop=0 speed=6.77x    frame=23678 fps=162 q=32.0 size=   33899kB time=00:16:27.71 bitrate= 281.2kbits/s dup=1 drop=0 speed=6.76x    frame=23739 fps=162 q=32.0 size=   33969kB time=00:16:30.27 bitrate= 281.0kbits/s dup=1 drop=0 speed=6.75x    frame=23808 fps=162 q=32.0 size=   34026kB time=00:16:33.13 bitrate= 280.7kbits/s dup=1 drop=0 speed=6.75x    frame=23858 fps=162 q=32.0 size=   34076kB time=00:16:35.22 bitrate= 280.5kbits/s dup=1 drop=0 speed=6.74x    frame=23881 fps=161 q=32.0 size=   34174kB time=00:16:36.20 bitrate= 281.0kbits/s dup=1 drop=0 speed=6.73x    frame=23908 fps=161 q=32.0 size=   34299kB time=00:16:37.31 bitrate= 281.7kbits/s dup=1 drop=0 speed= 6.7x    frame=23954 fps=160 q=32.0 size=   34457kB time=00:16:39.23 bitrate= 282.5kbits/s dup=1 drop=0 speed=6.69x    frame=24029 fps=160 q=32.0 size=   34564kB time=00:16:42.34 bitrate= 282.5kbits/s dup=1 drop=0 speed=6.69x    frame=24103 fps=160 q=32.0 size=   34630kB time=00:16:45.46 bitrate= 282.1kbits/s dup=1 drop=0 speed=6.69x    frame=24171 fps=160 q=32.0 size=   34741kB time=00:16:48.27 bitrate= 282.3kbits/s dup=1 drop=0 speed=6.68x    frame=24239 fps=160 q=32.0 size=   34805kB time=00:16:51.13 bitrate= 282.0kbits/s dup=1 drop=0 speed=6.68x    frame=24296 fps=160 q=32.0 size=   34935kB time=00:16:53.48 bitrate= 282.4kbits/s dup=1 drop=0 speed=6.67x    frame=24382 fps=160 q=32.0 size=   35090kB time=00:16:57.11 bitrate= 282.6kbits/s dup=1 drop=0 speed=6.68x    frame=24492 fps=160 q=32.0 size=   35327kB time=00:17:01.67 bitrate= 283.3kbits/s dup=1 drop=0 speed=6.68x    frame=24590 fps=160 q=32.0 size=   35515kB time=00:17:05.77 bitrate= 283.6kbits/s dup=1 drop=0 speed=6.69x    frame=24708 fps=161 q=32.0 size=   35726kB time=00:17:10.63 bitrate= 284.0kbits/s dup=1 drop=0 speed= 6.7x    frame=24823 fps=161 q=32.0 size=   35877kB time=00:17:15.49 bitrate= 283.8kbits/s dup=1 drop=0 speed=6.71x    frame=24964 fps=161 q=32.0 size=   36030kB time=00:17:21.34 bitrate= 283.4kbits/s dup=1 drop=0 speed=6.72x    frame=25107 fps=162 q=32.0 size=   36242kB time=00:17:27.31 bitrate= 283.5kbits/s dup=1 drop=0 speed=6.74x    frame=25258 fps=162 q=32.0 size=   36422kB time=00:17:33.63 bitrate= 283.2kbits/s dup=1 drop=0 speed=6.76x    frame=25381 fps=162 q=32.0 size=   36590kB time=00:17:38.75 bitrate= 283.1kbits/s dup=1 drop=0 speed=6.77x    frame=25502 fps=163 q=32.0 size=   36727kB time=00:17:43.78 bitrate= 282.8kbits/s dup=1 drop=0 speed=6.78x    frame=25589 fps=163 q=32.0 size=   36847kB time=00:17:47.41 bitrate= 282.8kbits/s dup=1 drop=0 speed=6.78x    frame=25663 fps=163 q=32.0 size=   36955kB time=00:17:50.52 bitrate= 282.8kbits/s dup=1 drop=0 speed=6.78x    frame=25748 fps=163 q=32.0 size=   37102kB time=00:17:54.07 bitrate= 283.0kbits/s dup=1 drop=0 speed=6.78x    frame=25863 fps=163 q=32.0 size=   37228kB time=00:17:58.84 bitrate= 282.7kbits/s dup=1 drop=0 speed=6.79x    frame=25981 fps=163 q=32.0 size=   37393kB time=00:18:03.79 bitrate= 282.6kbits/s dup=1 drop=0 speed= 6.8x    frame=26107 fps=163 q=32.0 size=   37548kB time=00:18:09.04 bitrate= 282.4kbits/s dup=1 drop=0 speed=6.81x    frame=26251 fps=164 q=32.0 size=   37785kB time=00:18:15.06 bitrate= 282.7kbits/s dup=1 drop=0 speed=6.82x    frame=26388 fps=164 q=32.0 size=   37968kB time=00:18:20.77 bitrate= 282.6kbits/s dup=1 drop=0 speed=6.84x    frame=26517 fps=164 q=32.0 size=   38093kB time=00:18:26.15 bitrate= 282.1kbits/s dup=1 drop=0 speed=6.85x    frame=26643 fps=164 q=32.0 size=   38228kB time=00:18:31.40 bitrate= 281.8kbits/s dup=1 drop=0 speed=6.86x    frame=26739 fps=165 q=32.0 size=   38322kB time=00:18:35.41 bitrate= 281.4kbits/s dup=1 drop=0 speed=6.87x    frame=26865 fps=165 q=32.0 size=   38453kB time=00:18:40.66 bitrate= 281.1kbits/s dup=1 drop=0 speed=6.88x    frame=26972 fps=165 q=32.0 size=   38581kB time=00:18:45.09 bitrate= 280.9kbits/s dup=1 drop=0 speed=6.88x    frame=27069 fps=165 q=32.0 size=   38679kB time=00:18:49.11 bitrate= 280.6kbits/s dup=1 drop=0 speed=6.89x    frame=27146 fps=165 q=32.0 size=   38779kB time=00:18:52.35 bitrate= 280.5kbits/s dup=1 drop=0 speed=6.88x    frame=27293 fps=165 q=32.0 size=   38901kB time=00:18:58.49 bitrate= 279.9kbits/s dup=1 drop=0 speed= 6.9x    frame=27373 fps=165 q=32.0 size=   39010kB time=00:19:01.86 bitrate= 279.9kbits/s dup=1 drop=0 speed= 6.9x    frame=27456 fps=165 q=32.0 size=   39145kB time=00:19:05.32 bitrate= 280.0kbits/s dup=1 drop=0 speed= 6.9x    frame=27589 fps=166 q=32.0 size=   39259kB time=00:19:10.82 bitrate= 279.5kbits/s dup=1 drop=0 speed=6.91x    frame=27698 fps=166 q=32.0 size=   39361kB time=00:19:15.39 bitrate= 279.1kbits/s dup=1 drop=0 speed=6.92x    frame=27769 fps=166 q=32.0 size=   39474kB time=00:19:18.37 bitrate= 279.2kbits/s dup=1 drop=0 speed=6.91x    frame=27878 fps=166 q=32.0 size=   39639kB time=00:19:22.90 bitrate= 279.2kbits/s dup=1 drop=0 speed=6.92x    frame=28046 fps=166 q=32.0 size=   39784kB time=00:19:29.89 bitrate= 278.6kbits/s dup=1 drop=0 speed=6.94x    frame=28163 fps=167 q=32.0 size=   39894kB time=00:19:34.80 bitrate= 278.2kbits/s dup=1 drop=0 speed=6.95x    frame=28271 fps=167 q=32.0 size=   40030kB time=00:19:39.28 bitrate= 278.1kbits/s dup=1 drop=0 speed=6.96x    frame=28391 fps=167 q=32.0 size=   40145kB time=00:19:44.32 bitrate= 277.7kbits/s dup=1 drop=0 speed=6.96x    frame=28525 fps=167 q=32.0 size=   40290kB time=00:19:49.91 bitrate= 277.4kbits/s dup=1 drop=0 speed=6.98x    frame=28655 fps=168 q=32.0 size=   40428kB time=00:19:55.32 bitrate= 277.1kbits/s dup=1 drop=0 speed=6.99x    frame=28726 fps=167 q=32.0 size=   40572kB time=00:19:58.27 bitrate= 277.4kbits/s dup=1 drop=0 speed=6.98x    frame=28842 fps=168 q=32.0 size=   40739kB time=00:20:03.13 bitrate= 277.4kbits/s dup=1 drop=0 speed=6.99x    frame=28946 fps=168 q=32.0 size=   40865kB time=00:20:07.44 bitrate= 277.3kbits/s dup=1 drop=0 speed=6.99x    frame=28997 fps=167 q=32.0 size=   40935kB time=00:20:09.57 bitrate= 277.2kbits/s dup=1 drop=0 speed=6.99x    frame=29059 fps=167 q=32.0 size=   41010kB time=00:20:12.18 bitrate= 277.1kbits/s dup=1 drop=0 speed=6.98x    frame=29107 fps=167 q=32.0 size=   41123kB time=00:20:14.14 bitrate= 277.5kbits/s dup=1 drop=0 speed=6.97x    frame=29181 fps=167 q=32.0 size=   41252kB time=00:20:17.25 bitrate= 277.6kbits/s dup=1 drop=0 speed=6.97x    frame=29272 fps=167 q=32.0 size=   41333kB time=00:20:21.05 bitrate= 277.3kbits/s dup=1 drop=0 speed=6.97x    frame=29366 fps=167 q=32.0 size=   41424kB time=00:20:24.93 bitrate= 277.0kbits/s dup=1 drop=0 speed=6.97x    frame=29442 fps=167 q=32.0 size=   41495kB time=00:20:28.13 bitrate= 276.8kbits/s dup=1 drop=0 speed=6.97x    frame=29516 fps=167 q=32.0 size=   41565kB time=00:20:31.21 bitrate= 276.6kbits/s dup=1 drop=0 speed=6.97x    frame=29595 fps=167 q=32.0 size=   41658kB time=00:20:34.49 bitrate= 276.4kbits/s dup=1 drop=0 speed=6.97x    frame=29688 fps=167 q=32.0 size=   41754kB time=00:20:38.37 bitrate= 276.2kbits/s dup=1 drop=0 speed=6.97x    frame=29760 fps=167 q=32.0 size=   41844kB time=00:20:41.40 bitrate= 276.1kbits/s dup=1 drop=0 speed=6.97x    frame=29833 fps=167 q=32.0 size=   41971kB time=00:20:44.43 bitrate= 276.3kbits/s dup=1 drop=0 speed=6.96x    frame=29902 fps=167 q=32.0 size=   42084kB time=00:20:47.33 bitrate= 276.4kbits/s dup=1 drop=0 speed=6.96x    frame=29982 fps=167 q=32.0 size=   42200kB time=00:20:50.66 bitrate= 276.4kbits/s dup=1 drop=0 speed=6.96x    frame=30080 fps=167 q=32.0 size=   42300kB time=00:20:54.76 bitrate= 276.2kbits/s dup=1 drop=0 speed=6.96x    frame=30150 fps=167 q=32.0 size=   42358kB time=00:20:57.66 bitrate= 275.9kbits/s dup=1 drop=0 speed=6.96x    frame=30209 fps=167 q=32.0 size=   42449kB time=00:21:00.09 bitrate= 276.0kbits/s dup=1 drop=0 speed=6.95x    frame=30257 fps=166 q=32.0 size=   42527kB time=00:21:02.14 bitrate= 276.0kbits/s dup=1 drop=0 speed=6.94x    frame=30293 fps=166 q=32.0 size=   42592kB time=00:21:03.63 bitrate= 276.1kbits/s dup=1 drop=0 speed=6.93x    frame=30327 fps=166 q=32.0 size=   42659kB time=00:21:05.04 bitrate= 276.2kbits/s dup=1 drop=0 speed=6.92x    frame=30363 fps=166 q=32.0 size=   42728kB time=00:21:06.53 bitrate= 276.4kbits/s dup=1 drop=0 speed=6.91x    frame=30402 fps=165 q=32.0 size=   42803kB time=00:21:08.20 bitrate= 276.5kbits/s dup=1 drop=0 speed= 6.9x    frame=30438 fps=165 q=32.0 size=   42882kB time=00:21:09.65 bitrate= 276.7kbits/s dup=1 drop=0 speed=6.89x    frame=30501 fps=165 q=32.0 size=   42973kB time=00:21:12.29 bitrate= 276.7kbits/s dup=1 drop=0 speed=6.88x    frame=30545 fps=165 q=32.0 size=   43052kB time=00:21:14.13 bitrate= 276.8kbits/s dup=1 drop=0 speed=6.87x    frame=30588 fps=165 q=32.0 size=   43126kB time=00:21:15.92 bitrate= 276.9kbits/s dup=1 drop=0 speed=6.86x    frame=30627 fps=164 q=32.0 size=   43192kB time=00:21:17.54 bitrate= 277.0kbits/s dup=1 drop=0 speed=6.85x    frame=30671 fps=164 q=32.0 size=   43268kB time=00:21:19.38 bitrate= 277.0kbits/s dup=1 drop=0 speed=6.84x    frame=30715 fps=164 q=32.0 size=   43346kB time=00:21:21.21 bitrate= 277.2kbits/s dup=1 drop=0 speed=6.83x    frame=30760 fps=164 q=32.0 size=   43442kB time=00:21:23.09 bitrate= 277.4kbits/s dup=1 drop=0 speed=6.82x    frame=30798 fps=163 q=32.0 size=   43512kB time=00:21:24.67 bitrate= 277.5kbits/s dup=1 drop=0 speed=6.81x    frame=30841 fps=163 q=32.0 size=   43637kB time=00:21:26.50 bitrate= 277.9kbits/s dup=1 drop=0 speed=6.81x    frame=30880 fps=163 q=32.0 size=   43740kB time=00:21:28.08 bitrate= 278.2kbits/s dup=1 drop=0 speed= 6.8x    frame=30916 fps=163 q=32.0 size=   43839kB time=00:21:29.62 bitrate= 278.5kbits/s dup=1 drop=0 speed=6.79x    frame=30954 fps=162 q=32.0 size=   43938kB time=00:21:31.20 bitrate= 278.8kbits/s dup=1 drop=0 speed=6.78x    frame=30998 fps=162 q=32.0 size=   44043kB time=00:21:33.03 bitrate= 279.0kbits/s dup=1 drop=0 speed=6.77x    frame=31042 fps=162 q=32.0 size=   44195kB time=00:21:34.91 bitrate= 279.6kbits/s dup=1 drop=0 speed=6.76x    frame=31080 fps=162 q=32.0 size=   44310kB time=00:21:36.44 bitrate= 280.0kbits/s dup=1 drop=0 speed=6.75x    frame=31109 fps=162 q=32.0 size=   44429kB time=00:21:37.64 bitrate= 280.5kbits/s dup=1 drop=0 speed=6.74x    frame=31138 fps=161 q=32.0 size=   44547kB time=00:21:38.88 bitrate= 281.0kbits/s dup=1 drop=0 speed=6.73x    frame=31191 fps=161 q=32.0 size=   44646kB time=00:21:41.09 bitrate= 281.1kbits/s dup=1 drop=0 speed=6.72x    frame=31231 fps=161 q=32.0 size=   44732kB time=00:21:42.76 bitrate= 281.3kbits/s dup=1 drop=0 speed=6.71x    frame=31288 fps=161 q=32.0 size=   44837kB time=00:21:45.11 bitrate= 281.4kbits/s dup=1 drop=0 speed=6.71x    frame=31336 fps=161 q=32.0 size=   44915kB time=00:21:47.11 bitrate= 281.5kbits/s dup=1 drop=0 speed= 6.7x    frame=31385 fps=160 q=32.0 size=   45035kB time=00:21:49.16 bitrate= 281.8kbits/s dup=1 drop=0 speed=6.69x    frame=31437 fps=160 q=32.0 size=   45134kB time=00:21:51.33 bitrate= 282.0kbits/s dup=1 drop=0 speed=6.69x    frame=31482 fps=160 q=32.0 size=   45217kB time=00:21:53.21 bitrate= 282.1kbits/s dup=1 drop=0 speed=6.68x    frame=31536 fps=160 q=32.0 size=   45318kB time=00:21:55.47 bitrate= 282.2kbits/s dup=1 drop=0 speed=6.67x    frame=31599 fps=160 q=32.0 size=   45433kB time=00:21:58.12 bitrate= 282.4kbits/s dup=1 drop=0 speed=6.67x    frame=31654 fps=160 q=32.0 size=   45538kB time=00:22:00.42 bitrate= 282.5kbits/s dup=1 drop=0 speed=6.66x    frame=31717 fps=160 q=32.0 size=   45635kB time=00:22:03.03 bitrate= 282.6kbits/s dup=1 drop=0 speed=6.66x    frame=31779 fps=160 q=32.0 size=   45721kB time=00:22:05.63 bitrate= 282.5kbits/s dup=1 drop=0 speed=6.65x    frame=31831 fps=159 q=32.0 size=   45843kB time=00:22:07.76 bitrate= 282.8kbits/s dup=1 drop=0 speed=6.65x    frame=31881 fps=159 q=32.0 size=   45969kB time=00:22:09.85 bitrate= 283.2kbits/s dup=1 drop=0 speed=6.64x    frame=31913 fps=159 q=32.0 size=   46069kB time=00:22:11.22 bitrate= 283.5kbits/s dup=1 drop=0 speed=6.63x    frame=31945 fps=159 q=32.0 size=   46181kB time=00:22:12.54 bitrate= 283.9kbits/s dup=1 drop=0 speed=6.62x    frame=31979 fps=159 q=32.0 size=   46306kB time=00:22:13.95 bitrate= 284.4kbits/s dup=1 drop=0 speed=6.61x    frame=32015 fps=158 q=32.0 size=   46408kB time=00:22:15.44 bitrate= 284.7kbits/s dup=1 drop=0 speed= 6.6x    frame=32061 fps=158 q=32.0 size=   46516kB time=00:22:17.36 bitrate= 284.9kbits/s dup=1 drop=0 speed=6.59x    frame=32097 fps=158 q=32.0 size=   46608kB time=00:22:18.85 bitrate= 285.2kbits/s dup=1 drop=0 speed=6.58x    frame=32139 fps=158 q=32.0 size=   46691kB time=00:22:20.60 bitrate= 285.3kbits/s dup=1 drop=0 speed=6.58x    frame=32203 fps=158 q=32.0 size=   46793kB time=00:22:23.29 bitrate= 285.4kbits/s dup=1 drop=0 speed=6.57x    frame=32303 fps=158 q=32.0 size=   46954kB time=00:22:27.43 bitrate= 285.5kbits/s dup=1 drop=0 speed=6.58x    frame=32378 fps=158 q=32.0 size=   47138kB time=00:22:30.59 bitrate= 285.9kbits/s dup=1 drop=0 speed=6.57x    frame=32455 fps=158 q=32.0 size=   47300kB time=00:22:33.83 bitrate= 286.2kbits/s dup=1 drop=0 speed=6.57x    frame=32548 fps=158 q=32.0 size=   47425kB time=00:22:37.67 bitrate= 286.2kbits/s dup=1 drop=0 speed=6.58x    frame=32692 fps=158 q=32.0 size=   47585kB time=00:22:43.69 bitrate= 285.9kbits/s dup=1 drop=0 speed=6.59x    frame=32801 fps=158 q=32.0 size=   47759kB time=00:22:48.25 bitrate= 285.9kbits/s dup=1 drop=0 speed= 6.6x    frame=32939 fps=158 q=32.0 size=   47961kB time=00:22:54.01 bitrate= 285.9kbits/s dup=1 drop=0 speed=6.61x    frame=33051 fps=159 q=32.0 size=   48125kB time=00:22:58.66 bitrate= 286.0kbits/s dup=1 drop=0 speed=6.61x    frame=33166 fps=159 q=32.0 size=   48253kB time=00:23:03.44 bitrate= 285.7kbits/s dup=1 drop=0 speed=6.62x    frame=33303 fps=159 q=32.0 size=   48436kB time=00:23:09.16 bitrate= 285.6kbits/s dup=1 drop=0 speed=6.63x    frame=33407 fps=159 q=32.0 size=   48649kB time=00:23:13.51 bitrate= 286.0kbits/s dup=1 drop=0 speed=6.64x    frame=33500 fps=159 q=32.0 size=   48876kB time=00:23:17.39 bitrate= 286.5kbits/s dup=1 drop=0 speed=6.64x    frame=33603 fps=159 q=32.0 size=   49061kB time=00:23:21.70 bitrate= 286.7kbits/s dup=1 drop=0 speed=6.64x    frame=33727 fps=159 q=32.0 size=   49189kB time=00:23:26.87 bitrate= 286.4kbits/s dup=1 drop=0 speed=6.65x    frame=33845 fps=160 q=32.0 size=   49363kB time=00:23:31.77 bitrate= 286.4kbits/s dup=1 drop=0 speed=6.66x    frame=33938 fps=160 q=32.0 size=   49517kB time=00:23:35.65 bitrate= 286.5kbits/s dup=1 drop=0 speed=6.66x    frame=34002 fps=160 q=32.0 size=   49727kB time=00:23:38.34 bitrate= 287.2kbits/s dup=1 drop=0 speed=6.66x    frame=34067 fps=160 q=32.0 size=   49846kB time=00:23:41.03 bitrate= 287.4kbits/s dup=1 drop=0 speed=6.65x    frame=34133 fps=159 q=32.0 size=   49971kB time=00:23:43.80 bitrate= 287.5kbits/s dup=1 drop=0 speed=6.65x    frame=34202 fps=159 q=32.0 size=   50106kB time=00:23:46.66 bitrate= 287.7kbits/s dup=1 drop=0 speed=6.65x    frame=34289 fps=159 q=32.0 size=   50254kB time=00:23:50.29 bitrate= 287.8kbits/s dup=1 drop=0 speed=6.65x    frame=34397 fps=160 q=32.0 size=   50418kB time=00:23:54.77 bitrate= 287.9kbits/s dup=1 drop=0 speed=6.65x    frame=34504 fps=160 q=32.0 size=   50596kB time=00:23:59.25 bitrate= 288.0kbits/s dup=1 drop=0 speed=6.66x    frame=34579 fps=160 q=32.0 size=   50737kB time=00:24:02.41 bitrate= 288.2kbits/s dup=1 drop=0 speed=6.66x    frame=34648 fps=160 q=32.0 size=   50929kB time=00:24:05.27 bitrate= 288.7kbits/s dup=1 drop=0 speed=6.66x    frame=34741 fps=160 q=32.0 size=   51078kB time=00:24:09.15 bitrate= 288.7kbits/s dup=1 drop=0 speed=6.66x    frame=34852 fps=160 q=32.0 size=   51238kB time=00:24:13.76 bitrate= 288.7kbits/s dup=1 drop=0 speed=6.66x    frame=35092 fps=160 q=32.0 size=   51407kB time=00:24:23.78 bitrate= 287.7kbits/s dup=1 drop=0 speed=6.69x    [mp4 @ 0x2bfbf20] Starting second pass: moving the moov atom to the beginning of the file
frame=35180 fps=161 q=-1.0 Lsize=   52321kB time=00:24:27.28 bitrate= 292.1kbits/s dup=1 drop=0 speed= 6.7x    
video:42201kB audio:9286kB subtitle:0kB other streams:0kB global headers:0kB muxing overhead: 1.619965%
[libx264 @ 0x2c86600] frame I:342   Avg QP:21.59  size: 18273
[libx264 @ 0x2c86600] frame P:11519 Avg QP:25.13  size:  2553
[libx264 @ 0x2c86600] frame B:23319 Avg QP:29.84  size:   324
[libx264 @ 0x2c86600] consecutive B-frames:  3.3%  7.5% 52.2% 37.0%
[libx264 @ 0x2c86600] mb I  I16..4: 23.9% 51.3% 24.8%
[libx264 @ 0x2c86600] mb P  I16..4:  3.4%  2.8%  1.0%  P16..4: 29.2%  5.1%  4.3%  0.2%  0.0%    skip:54.1%
[libx264 @ 0x2c86600] mb B  I16..4:  0.2%  0.2%  0.1%  B16..8: 13.0%  0.8%  0.1%  direct: 0.2%  skip:85.4%  L0:38.5% L1:59.3% BI: 2.2%
[libx264 @ 0x2c86600] 8x8 transform intra:42.0% inter:56.5%
[libx264 @ 0x2c86600] coded y,uvDC,uvAC intra: 34.6% 56.9% 13.9% inter: 2.0% 3.4% 0.1%
[libx264 @ 0x2c86600] i16 v,h,dc,p: 46% 25% 18% 11%
[libx264 @ 0x2c86600] i8 v,h,dc,ddl,ddr,vr,hd,vl,hu: 23% 18% 37%  4%  3%  3%  3%  4%  4%
[libx264 @ 0x2c86600] i4 v,h,dc,ddl,ddr,vr,hd,vl,hu: 32% 17% 20%  5%  5%  6%  5%  6%  4%
[libx264 @ 0x2c86600] i8c dc,h,v,p: 47% 23% 24%  7%
[libx264 @ 0x2c86600] Weighted P-Frames: Y:1.4% UV:1.1%
[libx264 @ 0x2c86600] ref P L0: 62.9%  8.8% 12.5%  4.4%  3.4%  3.0%  2.6%  1.5%  0.9%  0.0%
[libx264 @ 0x2c86600] ref B L0: 83.0%  7.7%  4.0%  1.8%  1.5%  1.1%  0.9%
[libx264 @ 0x2c86600] ref B L1: 91.7%  8.3%
[libx264 @ 0x2c86600] kb/s:235.61
